<svg xmlns="http://www.w3.org/2000/svg" width="793.701" height="1122.52" viewBox="0 0 210 297" xmlns:v="https://vecta.io/nano"><path d="M47.405 224.594c.043-6.786 1.008-13.533 2.093-20.218 1.844-11.364 2.273-12.829 4.705-24.865l3.617-15.865 8.703-34.705 11.22-44.437c.415-1.646 3.341-13.786 4.45-16.603.366-.931 2.421-3.147 1.658-2.5-2.041 1.729-4.802 3.229-5.549 5.798-.693 2.383 1.251 4.806 1.757 7.236.825 3.962 1.49 7.955 2.234 11.932 4.778 26.106 10.295 52.075 16.707 77.83l10.836 41.171c6.204 22.455 12.326 44.938 17.358 67.688l5.444-2.945h0l-19.493-66.543-11.109-41.009c-6.415-25.947-11.598-52.224-14.89-78.757l-1.403-12.392c-.303-2.629 1.131-6.232-.937-7.884-8.418-6.724-9.379 7.008-9.911 9.602l-1.982 9.698c-3.205 14.715-6.609 29.367-10.279 43.975l-8.998 34.854-4.015 16.067c-3.605 15.338-7.38 30.706-9.234 46.379l7.019-3.509z"/><path d="M53.111 183.523l55.617-.075 67.062.027 3.952-2.877h0c-22.371.353-44.743.392-67.115.021-17.719-.296-35.465-.431-53.146-1.725l-6.37 4.628zm56.686-56.668c.301 5.602.441 11.225.155 16.831-.098 1.926-.279 3.847-.419 5.77-.424 5.445-1.362 10.825-2.182 16.217-.187 1.232-.953 4.988-.391 6.533.252.694.963 1.119 1.444 1.679 1.029.172 2.044.491 3.087.517 2.241.056 8.723-.82 10.543-1.036l6.658-.783c5.036-.517 7.407-.629 12.343-.95l5.484-4.044h0l-12.488 1.024-12.226 1.251c-1.416.115-2.834.237-4.255.249-.885.007-1.766-.128-2.649-.193-.434-.39-1.066-.637-1.302-1.17-.66-1.492-.077-4.962.065-6.179.628-5.391 1.492-10.755 1.971-16.163l.497-5.839c.403-5.763.413-11.539.715-17.306l-7.05 3.592zm50.798 42.97c-1.033-5.071-1.923-10.169-2.809-15.268-1.09-6.713-2.443-13.421-2.654-20.235.173-2.047.697-4.091 2.373-5.46.567-.463 2.456-1.576 1.9-1.1-3.78 3.236-6.107 3.198-.428 2.09 9.176-.878 18.378.519 27.442 1.845l5.585-3.939h0l-11.918-1.542c-3.819-.436-7.222-.829-11.051-.887-1.406-.021-2.811.084-4.217.126-6.396.92-3.341.116-12.453 5.053-1.405.761-2.298 1.61-3.014 3.028-.832 1.647-.717 2.399-.878 4.218.45 6.791 1.927 13.461 2.942 20.181.821 5.18 1.648 10.365 2.171 15.586l7.01-3.698z"/><path d="M156.549 150.441c4.766.801 9.569 1.363 14.357 2.016l5.915-4.178h0c-4.611-.612-9.239-1.212-13.761-2.33l-6.511 4.491z"/></svg>